<?xml version="1.0" encoding="UTF-8"?> <svg xmlns="http://www.w3.org/2000/svg" xmlns:xlink="http://www.w3.org/1999/xlink" xmlns:xodm="http://www.corel.com/coreldraw/odm/2003" xml:space="preserve" width="7.7858mm" height="7.7047mm" version="1.1" style="shape-rendering:geometricPrecision; text-rendering:geometricPrecision; image-rendering:optimizeQuality; fill-rule:evenodd; clip-rule:evenodd" viewBox="0 0 770.21 762.19"> <defs> <style type="text/css"> .fil0 {fill:none} .fil1 {fill:#294684;fill-rule:nonzero} </style> </defs> <g id="Layer_x0020_1"> <metadata id="CorelCorpID_0Corel-Layer"></metadata> <rect class="fil0" y="-0" width="770.21" height="762.19"></rect> <g id="_1259585490752"> <g data-name="Layer 22"> <path class="fil1" d="M186.87 196.83c1.81,1.57 4.13,2.44 6.52,2.44 5.48,0 9.92,-4.44 9.92,-9.91 0,-2.89 -1.26,-5.64 -3.44,-7.52l-43.53 -37.76c-0.7,-0.65 -1.11,-1.57 -1.11,-2.53 0,-0.81 0.29,-1.59 0.81,-2.22 53.97,-67.95 135.33,-105.38 229.06,-105.38 93.73,0 175.09,37.42 229.07,105.38 0.52,0.62 0.81,1.41 0.81,2.23 0,0.95 -0.41,1.87 -1.11,2.52l-43.54 37.76c-2.19,1.88 -3.44,4.63 -3.44,7.52 0,5.47 4.44,9.91 9.92,9.91 2.39,0 4.71,-0.87 6.52,-2.44l43.54 -37.77c5.06,-4.4 7.97,-10.8 7.97,-17.51 0,-5.29 -1.8,-10.43 -5.11,-14.55 -57.03,-71.73 -146.17,-112.87 -244.63,-112.87 -98.46,0 -187.6,41.14 -244.63,112.87 -3.31,4.12 -5.13,9.26 -5.13,14.56 0,6.71 2.91,13.09 7.96,17.5l43.57 37.77z"></path> <path class="fil1" d="M665.88 184.93c-3.86,-7.96 -11.93,-13.03 -20.78,-13.03 -0.87,0 -1.75,0.05 -2.62,0.15l-7.22 0.8c-5.03,0.55 -8.82,4.8 -8.82,9.85 0,5.48 4.44,9.92 9.91,9.92 0.37,0 0.73,-0.02 1.1,-0.06l7.23 -0.81c0.15,-0.02 0.29,-0.03 0.43,-0.03 1.21,0 2.31,0.66 2.89,1.73 20.65,44.82 31.37,93.68 31.37,143.04 0,1.62 -0.04,3.33 -0.04,4.93 0,107.25 -40.89,217.06 -109.38,293.75 -0.61,0.64 -1.47,1.01 -2.37,1.01 -0.42,0 -0.83,-0.08 -1.22,-0.23l-52.14 -19.5c-1.11,-0.42 -2.29,-0.62 -3.46,-0.62 -5.48,0 -9.92,4.44 -9.92,9.91 0,2.18 0.72,4.29 2.04,6.01l28.01 36.62c0.44,0.58 0.66,1.3 0.66,2.03 0,1.05 -0.48,2.05 -1.33,2.69 -44.84,36.03 -95.01,55.09 -145.09,55.09 -50.09,0 -100.25,-19.06 -145.07,-55.11 -0.84,-0.64 -1.33,-1.64 -1.33,-2.7 0,-0.73 0.23,-1.43 0.66,-2.03l28.01 -36.62c1.31,-1.72 2.02,-3.82 2.02,-5.98 0,-5.47 -4.44,-9.91 -9.92,-9.91 -1.18,0 -2.35,0.21 -3.46,0.62l-52.15 19.52c-0.39,0.16 -0.8,0.24 -1.22,0.24 -0.9,0 -1.76,-0.37 -2.38,-1.02 -68.48,-76.72 -109.37,-186.53 -109.37,-293.79 0.01,-1.58 -0.03,-3.25 -0.03,-4.88 0,-49.35 10.72,-98.25 31.38,-143.07 0.55,-1.06 1.64,-1.73 2.83,-1.73 0.17,0 0.33,0.01 0.48,0.04l7.22 0.8c0.37,0.04 0.73,0.06 1.1,0.06 5.47,0 9.91,-4.44 9.91,-9.92 0,-5.06 -3.8,-9.3 -8.82,-9.85l-7.21 -0.8c-0.89,-0.1 -1.8,-0.16 -2.7,-0.16 -8.84,0 -16.9,5.07 -20.71,13.04 -21.92,47.47 -33.31,99.22 -33.31,151.54 0,1.63 0.05,3.35 0.05,4.95 0,111.98 42.77,226.78 114.41,306.96 4.39,4.84 10.64,7.61 17.19,7.61 2.78,0 5.55,-0.5 8.15,-1.48l19.83 -7.41 -7.04 9.21c-3.1,4.04 -4.78,8.98 -4.78,14.08 0,7.07 3.24,13.76 8.78,18.14 48.38,38.93 102.84,59.5 157.5,59.5 54.66,0 109.09,-20.57 157.5,-59.5 5.56,-4.38 8.8,-11.07 8.8,-18.14 0,-5.08 -1.69,-10.05 -4.79,-14.08l-7.04 -9.21 19.83 7.42c2.6,0.97 5.37,1.47 8.15,1.47 6.55,0 12.8,-2.77 17.2,-7.62 71.61,-80.19 114.39,-194.98 114.39,-306.97 -0.02,-1.57 0.03,-3.29 0.03,-4.93 0,-52.32 -11.39,-104.07 -33.31,-151.54l0 0z"></path> <path class="fil1" d="M606.6 281.9c0,-35.22 -42.11,-62.81 -95.87,-62.81 -53.77,0 -95.87,27.59 -95.87,62.81 0,35.23 42.1,62.82 95.87,62.82 53.76,0 95.87,-27.59 95.87,-62.82zm-171.9 0c0,-23.29 34.82,-42.97 76.03,-42.97 41.2,0 76.03,19.69 76.03,42.97 0,23.3 -34.83,42.98 -76.03,42.98 -41.21,0 -76.03,-19.69 -76.03,-42.98z"></path> <path class="fil1" d="M385.11 648.85c68.88,0 122.31,-47.98 122.31,-89.26 0,-39.32 -45.72,-62.81 -122.31,-62.81 -76.59,0 -122.31,23.48 -122.31,62.81 0,41.28 53.42,89.26 122.31,89.26zm0 -132.23c49.54,0 102.48,11.29 102.48,42.97 0,31.25 -47.29,69.43 -102.48,69.43 -55.19,0 -102.48,-38.18 -102.48,-69.43 0,-31.69 52.93,-42.97 102.48,-42.97z"></path> <path class="fil1" d="M259.48 219.09c-53.76,0 -95.87,27.59 -95.87,62.81 0,35.23 42.11,62.82 95.87,62.82 53.77,0 95.87,-27.59 95.87,-62.82 0,-35.22 -42.1,-62.81 -95.87,-62.81zm0 105.79c-41.2,0 -76.03,-19.69 -76.03,-42.98 0,-23.29 34.83,-42.97 76.03,-42.97 41.21,0 76.03,19.69 76.03,42.97 0,23.3 -34.82,42.98 -76.03,42.98z"></path> <path class="fil1" d="M327.58 376.15c-1.76,-3.07 -5.05,-4.97 -8.59,-4.97 -5.47,0 -9.9,4.42 -9.92,9.89l0 52.89c0.02,20.07 16.29,36.35 36.36,36.36l79.34 0c20.07,-0.01 36.35,-16.29 36.36,-36.36l0 -52.89c-0.02,-5.47 -4.45,-9.89 -9.92,-9.89 -3.54,0 -6.83,1.9 -8.59,4.97l-18.85 32.95c-2.95,5.14 -8.43,8.33 -14.35,8.34l-48.65 0c-5.93,-0.01 -11.41,-3.2 -14.35,-8.34l-18.85 -32.95zm33.2 61.13l48.65 0c13.05,-0.02 25.09,-7.01 31.57,-18.32l0.31 -0.54 0 15.55c0,9.13 -7.4,16.53 -16.53,16.53l-79.34 0c-9.13,0 -16.53,-7.4 -16.53,-16.53l0 -15.55 0.31 0.54c6.48,11.31 18.52,18.3 31.57,18.32l0 0z"></path> </g> </g> </g> </svg> 