<?xml version="1.0" encoding="UTF-8"?> <svg xmlns="http://www.w3.org/2000/svg" xmlns:xlink="http://www.w3.org/1999/xlink" xmlns:xodm="http://www.corel.com/coreldraw/odm/2003" xml:space="preserve" width="7.7858mm" height="7.7047mm" version="1.1" style="shape-rendering:geometricPrecision; text-rendering:geometricPrecision; image-rendering:optimizeQuality; fill-rule:evenodd; clip-rule:evenodd" viewBox="0 0 770.21 762.19"> <defs> <style type="text/css"> .fil0 {fill:none} .fil1 {fill:#294684} </style> </defs> <g id="Layer_x0020_1"> <metadata id="CorelCorpID_0Corel-Layer"></metadata> <rect class="fil0" y="-0" width="770.21" height="762.19"></rect> <path class="fil1" d="M407.99 740.88l-269.97 0c-24.19,0 -28.04,-20.97 -28.04,-45.31 0,-5.11 0.2,-10.81 0.39,-16.48 0.19,-5.24 0.37,-10.46 0.37,-15.83l0 -2.89 324.53 0 0 2.89c0,3.42 0.08,6.83 0.17,10.59 0.43,18.87 1.05,46.21 -5.81,56.08 -2.17,3.12 -5.47,5.99 -9.48,8 -3.58,1.81 -7.75,2.94 -12.17,2.94zm-101.21 -690.03l0.78 66.03 -69.03 0 -0.12 -2.76c-0.09,-2.15 -0.23,-4.7 -0.36,-7.38 -1.26,-24.68 -3.11,-60.9 10.14,-74.52 5.92,-6.06 13.58,-9.18 21.41,-9.78 5.22,-0.41 10.52,0.3 15.4,1.98 4.91,1.69 9.43,4.38 13.07,7.92 4.85,4.73 8.13,10.94 8.71,18.33l0 0.18zm33.94 161.1l0 39.69c-45.43,-0.16 -90.86,-0.31 -136.29,-0.44l-0.06 -42.3 136.35 0.18 0 2.87zm-11.81 189.79l105.53 -0.1 0 241.56 -323.69 0c-0.01,-81.04 -0.01,-162.08 -0.01,-243.12l119.89 0.01 -2.2 4.19c-3.73,7.15 -10.35,13.09 -17.25,19.28 -9.6,8.61 -19.78,17.73 -22.01,30.57 -1.08,6.2 -0.33,12.16 1.78,17.4 2.03,5.02 5.29,9.41 9.4,12.77 4.1,3.35 9.02,5.7 14.4,6.63 5.51,0.96 11.5,0.44 17.51,-1.98 7.59,-3.06 31.59,-26.79 53.65,-48.59 18.62,-18.4 35.87,-35.45 41.75,-38.33l0.59 -0.29 0.66 0zm-90.05 163.91c0,-10.79 4.3,-24.59 9.97,-37.08 6.86,-15.07 15.87,-28.43 21.81,-32.42l3.34 -2.25 1.04 3.89c0.9,3.36 3.73,7.29 7.19,12.1 8.45,11.72 20.36,28.25 20.36,57.28 0,13.85 -8.16,22.75 -18.69,26.65 -4.02,1.49 -8.41,2.23 -12.82,2.22 -4.4,-0.02 -8.81,-0.79 -12.88,-2.33 -10.82,-4.08 -19.33,-13.41 -19.33,-28.06zm28.5 -90.97c-2.36,1.33 -5.98,5.42 -9.79,10.39 -6.25,8.13 -12.81,18.4 -15.76,23.26 -14.99,24.6 -19.79,45.95 -17.73,62.85 0.97,7.95 3.46,14.9 7.12,20.7 3.64,5.78 8.45,10.45 14.08,13.87 9.03,5.5 20.2,7.81 32.05,6.36 3.08,-0.38 5.98,-0.99 8.73,-1.81 11.76,-3.54 20.63,-11.08 26.17,-20.95 5.59,-9.97 7.81,-22.34 6.21,-35.42 -0.5,-4.08 -1.37,-8.22 -2.62,-12.38 -1.42,-4.72 -7.71,-19.47 -15.89,-34.14 -5.2,-9.32 -11.15,-18.55 -17.05,-25.04 -5.32,-5.87 -10.41,-9.36 -14.38,-8.16 -0.39,0.12 -0.77,0.28 -1.13,0.47zm153.85 -157.46c5.22,9.86 8.74,18.38 10.96,28.22 2.21,9.8 3.11,20.8 3.11,35.65l0 2.88 -87.58 0 3 -4.48c2.78,-4.14 22.59,-22.38 36.77,-35.43 5.76,-5.29 10.58,-9.73 12.85,-11.91 1.83,-1.77 3.56,-3.63 5.25,-5.45 3.55,-3.82 6.98,-7.51 11.5,-10.54l2.64 -1.77 1.49 2.82zm-176.41 66.75l-134.05 0 0 -2.88c0,-18.88 1.5,-33.52 5.71,-46.37 4.22,-12.93 11.15,-23.94 21.95,-35.48l0.07 -0.08 3.12 -3.12c9.74,-9.04 19.71,-15.95 30.98,-20.61 11.29,-4.66 23.81,-7.04 38.67,-7.04 6.01,0 13.89,-0.09 23.49,-0.2 38.47,-0.44 103.23,-1.17 115.95,1.8l4.05 0.94 -2.31 3.46c-1.86,2.78 -12.04,13.73 -24.54,26.84 -20.88,21.89 -48.41,50 -54,55.56 -1.16,1.16 -3.16,3.48 -5.53,6.26 -7.26,8.49 -17.89,20.91 -23.54,20.91zm-22.88 91.52c-5.66,0 -9.77,-1.48 -12.56,-4.38 -2.78,-2.88 -4.05,-6.97 -4.05,-12.23 0,-7.9 8.13,-15.43 15.92,-22.63 2.31,-2.15 4.6,-4.25 6.66,-6.4 1.78,-1.85 2.77,-3.19 3.78,-4.54 0.99,-1.35 2,-2.7 3.77,-4.61l0.03 -0.05 128.92 -133.42c1.47,-1.59 2.32,-2.75 3.17,-3.91 0.95,-1.3 1.9,-2.6 3.63,-4.47 4.76,-5.15 8.72,-8.98 12.6,-12.74 5.74,-5.55 11.32,-10.95 19.41,-20.63l0.17 -0.18 25.12 -25.25c3.59,-3.56 7.23,-7.77 10.92,-12.04 6.93,-8 14.07,-16.23 21.91,-21.49l1.94 -1.3 33.17 32.33c-20.25,18.93 -42.23,38.23 -61.71,57.7 -1.87,1.73 -3.48,3.41 -5.19,5.18 -0.96,0.99 -1.94,2.01 -3.09,3.15l-67.16 64.1c-3.6,3.65 -6.8,6.83 -10.11,10.14 -29.32,29.27 -60.32,57.56 -90.41,86.12l-0.19 0.17c-1.92,1.53 -5.5,5.19 -9.65,9.43 -9.35,9.58 -21.43,21.93 -27,21.93zm-44.06 -289.62l0 -51.69 190.31 0 0 51.69c0,2.53 -0.49,4.3 -1.81,5.63l-0.01 0.01c-1.33,1.32 -3.1,1.82 -5.64,1.82l-175.39 0c-2.55,0 -4.33,-0.5 -5.65,-1.82l0.01 0c-1.33,-1.33 -1.82,-3.1 -1.82,-5.64zm290.19 -64.62l80.1 80.05c0.46,0.46 1.34,1.26 2.41,2.24l0 0.01c4.73,4.29 13.32,12.09 17.18,19.92 3.67,7.45 3.46,14.77 -6.29,19.59 -11.88,5.86 -20.36,-3.27 -31.78,-15.59 -2.57,-2.78 -5.31,-5.73 -8.22,-8.64l-67.38 -67.41c-4.19,-4.22 -7.9,-7.93 -12.77,-12.37 -2.1,-1.9 -3.67,-3.98 -4.73,-6.11 -1.46,-2.92 -1.98,-5.93 -1.63,-8.74 0.35,-2.88 1.58,-5.55 3.59,-7.78 1.3,-1.41 2.91,-2.64 4.84,-3.6 11.57,-5.8 17.63,0.79 22.77,6.39 0.68,0.74 1.35,1.46 1.91,2.04zm41.48 16.21c4.48,-7.41 9.45,-11.46 14.01,-15.18 6.14,-5.01 11.46,-9.33 12.96,-21.94 0.95,-7.98 3.6,-16 7,-23.27 4.15,-8.86 9.47,-16.66 14.18,-21.97 1.4,-1.59 2.82,-3.09 4.21,-4.49 11.24,-11.23 26.64,-21.7 42.14,-26.86 15.97,-5.3 32.06,-5 44.13,5.72 0.64,0.56 1.19,1.08 1.64,1.52 5.37,5.37 8.38,12.37 9.33,20.26 1.22,10.13 -0.99,21.76 -5.96,33.28 -4.91,11.39 -12.52,22.7 -22.18,32.37 -13.83,13.83 -31.89,24.3 -52.26,26.74 -12.39,1.49 -17.07,7.33 -21.93,13.39 -3.86,4.82 -7.82,9.75 -15.25,13.33l-1.85 0.89 -31.33 -31.88 1.16 -1.91zm-14.66 -13.28c-2.44,-1.63 -5.3,-4.62 -8.72,-8.17 -12.29,-12.8 -32.41,-33.77 -56.8,-13.65 -2.07,1.71 -5.06,5.98 -7.41,10.57 -1.97,3.83 -3.43,7.77 -3.43,10.4 0,17.12 8.7,25.26 17.46,33.46 4.47,4.18 8.95,8.39 12.55,13.75l1.07 1.6 -1.07 1.6c-1.53,2.29 -3.52,4.58 -5.57,6.94 -1.24,1.43 -2.49,2.89 -3.5,4.14l-0.14 0.17 -29.65 29.91c-0.79,0.82 -2.38,2.65 -4.49,5.07 -9.99,11.5 -31.16,35.87 -40.04,35.87 -3.62,0 -5.77,-2.22 -5.77,-7.45l0 -39.49 2.89 0c20.58,0 23.73,-17.04 23.73,-37.92 0,-5.16 -0.17,-10.09 -0.33,-15.07 -0.18,-5.42 -0.37,-10.89 -0.37,-15.82 0,-20.67 -18.05,-23.49 -36.48,-23.49 -4.16,0 -7.86,0.11 -11.44,0.23 -3.71,0.11 -7.31,0.22 -10.21,0.22l-2.88 0 0 -60.84c0,-13.22 -5.85,-25.84 -15.1,-35.18 -4.65,-4.69 -10.15,-8.55 -16.2,-11.23 -6.02,-2.67 -12.58,-4.17 -19.39,-4.17l0 -0.02c-12.4,0 -25.62,5.04 -37.85,17.15 -15.85,15.7 -15.1,44.24 -14.33,72.9 0.18,6.4 0.35,12.8 0.35,18.51l0 2.88 -2.88 0c-3,0 -6.74,-0.11 -10.59,-0.22 -15.36,-0.45 -32.69,-0.95 -40.54,5.96 -8.81,7.77 -8.07,29.08 -7.37,49.13 0.19,5.46 0.38,10.83 0.38,15.47 0,6.18 2.44,11.51 6.48,15.31 4.14,3.9 9.96,6.2 16.56,6.2l2.89 0 0 2.89c0,8.81 0.11,14.97 0.19,19.87 0.22,12.37 0.31,17.65 -1.76,20.96 -1.82,2.9 -4.37,3.58 -8.81,4.77 -4.9,1.32 -12.57,3.37 -24.56,10.32 -16.11,9.32 -30.81,23.65 -41.18,40.84 -9.51,15.75 -15.38,33.87 -15.38,52.72l0 356.9c0,10.19 5.34,20.1 13.52,27.5 8.27,7.46 19.4,12.33 30.87,12.33l263.86 0c13.27,0 25.38,-4.61 34.05,-12.48 8.26,-7.52 13.4,-18.03 13.4,-30.39l0 -352.33c0,-5 -0.52,-10.13 -1.37,-15.08 -1.01,-5.98 -2.48,-11.71 -4.03,-16.68 -2.67,-8.57 -5.77,-14.12 -9.19,-20.23 -1.12,-2.01 -2.28,-4.08 -3.38,-6.16l-0.97 -1.84c9.23,-9.52 18.41,-19.28 27.77,-28.64 2.31,-2.29 3.98,-3.55 5.69,-4.84 1.36,-1.03 2.75,-2.08 4.35,-3.57 4.32,-4 8.44,-8.32 12.52,-12.61 7.66,-8.04 15.19,-15.96 24.79,-22.39l2.39 -1.59 1.59 2.38c5.22,7.8 12.78,15.89 21.62,21.6 7.13,4.6 15.09,7.63 23.29,7.63 8.6,0 15.82,-3.53 20.89,-9.58 5.23,-6.22 8.25,-15.14 8.25,-25.68 0,-11.48 -9.41,-20.24 -18.01,-28.26 -4.62,-4.3 -9.03,-8.41 -11.99,-12.84l-1.6 -2.38 2.38 -1.6c4.09,-2.73 7.42,-6.33 10.93,-10.11 1.1,-1.19 2.21,-2.39 3.42,-3.65 6.32,-6.54 11.03,-7.33 17.65,-8.45 8.39,-1.42 20.26,-3.42 44.59,-21.51 20.73,-15.39 33.71,-35.49 39.35,-55.41 3.8,-13.39 4.25,-26.68 1.51,-38.37 -2.7,-11.52 -8.53,-21.49 -17.36,-28.4 -8.28,-6.49 -19.28,-10.34 -32.9,-10.34 -14.3,0 -28.4,4.55 -40.96,11.24 -15.87,8.44 -29.22,20.24 -37.43,30.57 -4.41,5.57 -8.65,11.37 -12.31,17.67 -3.65,6.26 -6.76,13.04 -8.95,20.59 -0.89,3.02 -1.51,6.8 -2.11,10.36l-0.35 2.05c-0.18,1.04 -0.33,2.01 -0.45,2.8 -0.31,2.01 -0.46,2.99 -1.01,4.08 -0.56,1.09 -1.21,1.68 -2.46,2.82 -0.56,0.51 -1.29,1.17 -2.1,1.96 -1.65,1.6 -3.25,3.29 -4.84,4.97 -3.75,3.95 -7.41,7.82 -12.04,10.91l-1.6 1.07 -1.59 -1.07z"></path> </g> </svg> 