<svg width="26" height="26" viewBox="0 0 26 26" fill="none" xmlns="http://www.w3.org/2000/svg">
<g clip-path="url(#clip0_287_1442)">
<path d="M23.3676 18.0282C23.013 17.8334 22.5677 17.9629 22.373 18.3174C22.1783 18.672 22.3078 19.1173 22.6623 19.312C23.5348 19.7913 24.0352 20.3227 24.0352 20.7698C24.0352 21.3168 23.2603 22.1644 21.0853 22.9033C18.9366 23.6334 16.0652 24.0354 13 24.0354C9.93481 24.0354 7.06338 23.6334 4.9147 22.9033C2.73975 22.1645 1.96484 21.3168 1.96484 20.7698C1.96484 20.3227 2.46523 19.7913 3.3377 19.312C3.69224 19.1172 3.82173 18.6719 3.62695 18.3174C3.43218 17.9629 2.98701 17.8334 2.63237 18.0281C1.65962 18.5626 0.5 19.472 0.5 20.7698C0.5 21.7647 1.18418 23.183 4.44346 24.2903C6.73994 25.0706 9.77871 25.5002 13 25.5002C16.2213 25.5002 19.2601 25.0706 21.5565 24.2903C24.8158 23.183 25.5 21.7647 25.5 20.7698C25.5 19.472 24.3404 18.5626 23.3676 18.0282Z" fill="white"/>
<path d="M7.47031 21.8438C8.95713 22.2639 10.9209 22.4952 13 22.4952C15.0791 22.4952 17.0429 22.2639 18.5297 21.8438C20.3487 21.33 21.271 20.5862 21.271 19.6332C21.271 18.6801 20.3487 17.9363 18.5297 17.4225C18.1259 17.3084 17.6867 17.2084 17.2198 17.123C16.9663 17.5611 16.7006 18.0121 16.4228 18.476C16.9396 18.5535 17.4248 18.6486 17.8654 18.7608C19.2041 19.1018 19.6932 19.4856 19.7937 19.6332C19.6931 19.7808 19.2041 20.1646 17.8655 20.5056C16.5984 20.8283 14.9683 21.0124 13.2513 21.0288C13.1682 21.035 13.0844 21.0384 13 21.0384C12.9156 21.0384 12.8318 21.035 12.7486 21.0288C11.0317 21.0124 9.40151 20.8283 8.13447 20.5056C6.7958 20.1646 6.30679 19.7808 6.20625 19.6332C6.30679 19.4856 6.79585 19.1018 8.13452 18.7608C8.57515 18.6486 9.06035 18.5535 9.5772 18.476C9.29941 18.0121 9.03374 17.5611 8.78018 17.123C8.31328 17.2084 7.87407 17.3084 7.47031 17.4225C5.65132 17.9363 4.729 18.6801 4.729 19.6332C4.729 20.5862 5.65132 21.33 7.47031 21.8438Z" fill="white"/>
<path d="M13 19.5739C13.652 19.5739 14.2442 19.2417 14.5844 18.6852C16.9677 14.7859 19.8086 9.64697 19.8086 7.30854C19.8086 3.5543 16.7543 0.5 13 0.5C9.2457 0.5 6.19141 3.5543 6.19141 7.30854C6.19141 9.64697 9.03237 14.7859 11.4156 18.6852C11.7558 19.2417 12.348 19.5739 13 19.5739ZM10.2633 6.84106C10.2633 5.33213 11.491 4.10449 13 4.10449C14.509 4.10449 15.7367 5.33213 15.7367 6.84106C15.7367 8.35005 14.509 9.57768 13 9.57768C11.491 9.57768 10.2633 8.3501 10.2633 6.84106Z" fill="white"/>
</g>
<defs>
<clipPath id="clip0_287_1442">
<rect width="25" height="25" fill="white" transform="translate(0.5 0.5)"/>
</clipPath>
</defs>
</svg>
