<svg width="26" height="26" viewBox="0 0 26 26" fill="none" xmlns="http://www.w3.org/2000/svg">
<g clip-path="url(#clip0_287_1450)">
<path d="M21.8857 10.9913C21.9157 7.46659 18.9137 4.23538 15.1938 3.78857C15.1198 3.77979 15.0392 3.76644 14.9539 3.75231C14.7697 3.7218 14.5793 3.69043 14.3871 3.69043C13.6247 3.69043 13.4209 4.22599 13.3672 4.5454C13.315 4.85596 13.3648 5.11675 13.5149 5.32086C13.7674 5.66419 14.2116 5.72513 14.5685 5.77397C14.673 5.78841 14.7717 5.80184 14.8543 5.8204C18.1966 6.56722 19.322 7.74136 19.872 11.0552C19.8854 11.1362 19.8914 11.2359 19.8979 11.3417C19.9219 11.7379 19.9719 12.562 20.8579 12.562H20.858C20.9317 12.562 21.011 12.5556 21.0935 12.5431C21.9186 12.4177 21.8928 11.6643 21.8803 11.3024C21.8769 11.2004 21.8735 11.104 21.8821 11.0399C21.8845 11.0237 21.8856 11.0075 21.8857 10.9913Z" fill="white"/>
<path d="M14.1706 2.49441C14.2696 2.50155 14.3633 2.50838 14.4414 2.52034C19.9297 3.36436 22.4536 5.96467 23.1531 11.4959C23.165 11.5899 23.1668 11.7046 23.1688 11.826C23.1758 12.2582 23.1901 13.1571 24.1556 13.1758L24.1856 13.1761C24.4883 13.1761 24.7292 13.0848 24.9015 12.9045C25.202 12.5901 25.181 12.1231 25.1641 11.7478C25.16 11.6557 25.156 11.569 25.1571 11.4931C25.2269 5.8361 20.3301 0.706366 14.6782 0.515606C14.6547 0.514829 14.6324 0.516071 14.6098 0.519255C14.5987 0.520885 14.5781 0.522904 14.5429 0.522904C14.4865 0.522904 14.4172 0.518012 14.3436 0.513043C14.2547 0.506988 14.154 0.5 14.0518 0.5C13.1517 0.5 12.9806 1.13975 12.9587 1.52112C12.9082 2.40248 13.7609 2.46452 14.1706 2.49441Z" fill="white"/>
<path d="M22.8883 18.6446C22.7716 18.5554 22.6509 18.4632 22.538 18.3722C21.9387 17.89 21.3012 17.4455 20.6847 17.0156C20.5568 16.9265 20.4288 16.8373 20.3013 16.7478C19.5116 16.1931 18.8016 15.9235 18.1308 15.9235C17.2273 15.9235 16.4395 16.4228 15.7894 17.4072C15.5013 17.8436 15.1519 18.0558 14.7212 18.0558C14.4665 18.0558 14.1772 17.9831 13.8613 17.8397C11.3121 16.6837 9.49185 14.9113 8.45094 12.5718C7.94776 11.4411 8.11088 10.702 8.99644 10.1004C9.49931 9.7591 10.4353 9.12369 10.369 7.90692C10.294 6.52517 7.24519 2.36764 5.96064 1.89543C5.41678 1.69543 4.84535 1.69357 4.25917 1.89077C2.78246 2.3872 1.72276 3.25902 1.19434 4.41181C0.683703 5.52571 0.706762 6.83363 1.26103 8.19419C2.86336 12.1279 5.11616 15.5575 7.95707 18.3877C10.7378 21.1582 14.1556 23.4277 18.1154 25.1327C18.4723 25.2863 18.8467 25.37 19.12 25.4311C19.2132 25.4521 19.2936 25.47 19.3523 25.486C19.3845 25.4948 19.4177 25.4995 19.451 25.4999L19.4823 25.5C19.4823 25.5 19.4823 25.5 19.4825 25.5C21.3449 25.5 23.5811 23.7982 24.2679 21.8579C24.8696 20.159 23.771 19.3193 22.8883 18.6446Z" fill="white"/>
<path d="M14.9943 6.98798C14.6755 6.99606 14.0119 7.01252 13.779 7.68837C13.6701 8.00421 13.6832 8.27843 13.8179 8.50343C14.0155 8.83356 14.3943 8.93472 14.7387 8.99023C15.988 9.1907 16.6297 9.88154 16.758 11.1641C16.8176 11.7622 17.2203 12.1798 17.7374 12.1798C17.7756 12.1798 17.8148 12.1776 17.8537 12.1728C18.4755 12.0989 18.777 11.6419 18.7498 10.8149C18.7597 9.9518 18.308 8.97191 17.5398 8.1914C16.7689 7.40848 15.8396 6.96756 14.9943 6.98798Z" fill="white"/>
</g>
<defs>
<clipPath id="clip0_287_1450">
<rect width="25" height="25" fill="white" transform="translate(0.5 0.5)"/>
</clipPath>
</defs>
</svg>
