<svg width="26" height="26" viewBox="0 0 26 26" fill="none" xmlns="http://www.w3.org/2000/svg">
<g clip-path="url(#clip0_287_1459)">
<path d="M16.6987 14.0381L14.6049 16.139C13.7559 16.991 12.2619 17.0094 11.3945 16.139L9.30059 14.0381L1.78027 21.5828C2.06021 21.7123 2.36885 21.7895 2.69697 21.7895H23.3024C23.6306 21.7895 23.9391 21.7124 24.2189 21.5829L16.6987 14.0381Z" fill="white"/>
<path d="M23.3028 4.21094H2.69736C2.36924 4.21094 2.0606 4.28818 1.78076 4.41763L9.81675 12.4803C9.81728 12.4808 9.81792 12.4809 9.81846 12.4814C9.81899 12.482 9.81909 12.4827 9.81909 12.4827L12.432 15.1043C12.7096 15.3818 13.2907 15.3818 13.5683 15.1043L16.1807 12.4832C16.1807 12.4832 16.1813 12.482 16.1818 12.4814C16.1818 12.4814 16.183 12.4808 16.1835 12.4803L24.2193 4.41758C23.9395 4.28809 23.631 4.21094 23.3028 4.21094Z" fill="white"/>
<path d="M0.733691 5.44238C0.588867 5.73525 0.5 6.06035 0.5 6.40859V19.5922C0.5 19.9404 0.58877 20.2655 0.733643 20.5584L8.26699 13.0006L0.733691 5.44238Z" fill="white"/>
<path d="M25.2662 5.44141L17.7329 12.9998L25.2662 20.5576C25.411 20.2647 25.4999 19.9396 25.4999 19.5913V6.40771C25.4999 6.05938 25.411 5.73428 25.2662 5.44141Z" fill="white"/>
</g>
<defs>
<clipPath id="clip0_287_1459">
<rect width="25" height="25" fill="white" transform="translate(0.5 0.5)"/>
</clipPath>
</defs>
</svg>
