<?xml version="1.0" encoding="UTF-8"?> <svg xmlns="http://www.w3.org/2000/svg" xmlns:xlink="http://www.w3.org/1999/xlink" xmlns:xodm="http://www.corel.com/coreldraw/odm/2003" xml:space="preserve" width="7.7858mm" height="7.7047mm" version="1.1" style="shape-rendering:geometricPrecision; text-rendering:geometricPrecision; image-rendering:optimizeQuality; fill-rule:evenodd; clip-rule:evenodd" viewBox="0 0 770.21 762.19"> <defs> <style type="text/css"> .str0 {stroke:#294684;stroke-width:7.54;stroke-miterlimit:22.9256} .fil0 {fill:none} .fil1 {fill:#294684;fill-rule:nonzero} </style> </defs> <g id="Layer_x0020_1"> <metadata id="CorelCorpID_0Corel-Layer"></metadata> <rect class="fil0" y="-0" width="770.21" height="762.19"></rect> <path class="fil1 str0" d="M383.37 613.36c-0.24,0 -0.46,0 -0.69,-0.02 -8.55,-0.32 -16.79,-7.47 -20.51,-17.79 -2.79,-7.75 -3.27,-17.07 -1.43,-27.71 0.89,-5.17 2.21,-10.15 3.48,-14.97 0.8,-3.05 1.56,-5.92 2.23,-8.84 3.9,-17.2 4.23,-35.23 4.24,-53.73l0 -4.79c-0.01,-17.04 -0.03,-34.67 2.69,-51.96 3.45,-21.97 11.13,-40.18 22.2,-52.66l7.51 9.17c-11.9,13.42 -16.93,32.32 -19.04,45.79 0,0.06 -0.01,0.11 -0.02,0.15l0.01 0c-2.91,19.18 -1.23,34.95 2.66,55.72 3.32,17.75 8.4,35.44 13.32,52.55 0.71,2.51 1.43,5.01 2.15,7.51 3.48,12.21 6.47,25.16 4.76,37.06 -2.04,14.11 -12.09,24.5 -23.54,24.5zm62.73 111.96l-122 0c-21.4,0 -38.81,-20.39 -38.81,-45.45l0.09 -375.09c0,-20.43 9.32,-39.56 24.31,-49.93l22.31 -15.43 0 -70.59 -34.51 0c-10.86,0 -19.7,-10.36 -19.7,-23.11l0 -27.36c0,-3.51 2.42,-6.36 5.42,-6.36l6.5 0 0 -75.14 10.84 0 0 75.14 19.15 0 0 -75.14 10.84 0 0 75.14 19.15 0 0 -75.14 10.83 0 0 75.14 19.15 0 0 -75.14 10.84 0 0 75.14 19.15 0 0 -75.14 10.84 0 0 75.14 19.14 0 0 -75.14 10.84 0 0 75.14 19.15 0 0 -75.14 10.84 0 0 75.14 6.5 0c3,0 5.42,2.85 5.42,6.36l0 27.36c0,12.74 -8.83,23.11 -19.7,23.11l-34.51 0 0 70.59 22.31 15.43c10.63,7.35 18.5,19.03 22.12,32.88 1.45,5.54 2.19,11.27 2.19,17.05l0 375.08c0,25.06 -17.37,45.45 -38.73,45.45zm-107.22 -475.9l-23.69 16.39c-11.7,8.09 -18.97,23.02 -18.97,38.97l-0.09 375.09c0,18.04 12.54,32.72 27.97,32.72l122 0c15.38,0 27.89,-14.68 27.89,-32.72l0 -375.09c0,-4.51 -0.56,-8.99 -1.7,-13.31 -2.84,-10.8 -8.97,-19.92 -17.27,-25.66l-23.69 -16.38 -92.44 0 0 -0.01zm3.95 -12.72l84.54 0 0 -67.87 -84.54 0 0 67.87zm-54.2 -111.98l0 21c0,5.72 3.97,10.39 8.85,10.39l39.93 0 95.38 0 39.93 0c4.89,0 8.85,-4.67 8.85,-10.39l0 -21 -192.94 0zm92.34 391.78c-0.57,10.37 -1.73,20.63 -4.05,30.82 -0.72,3.19 -1.54,6.31 -2.34,9.34 -1.26,4.73 -2.43,9.18 -3.22,13.73 -1.39,8.08 -1.13,14.88 0.79,20.23 2.07,5.74 6.53,9.86 10.85,10.01 6.35,0.24 12.03,-5.73 13.22,-13.88 1.32,-9.17 -1.46,-20.77 -4.35,-30.9 -0.71,-2.49 -1.42,-4.99 -2.14,-7.48 -3,-10.42 -6.05,-21.05 -8.76,-31.86z"></path> </g> </svg> 