<?xml version="1.0" encoding="UTF-8"?>
<svg xmlns="http://www.w3.org/2000/svg" version="1.1" viewBox="0 0 248.33 150">
  <defs>
    <style>
      .cls-1 {
        fill: #231f20;
      }
    </style>
  </defs>
  <!-- Generator: Adobe Illustrator 28.7.7, SVG Export Plug-In . SVG Version: 1.2.0 Build 194)  -->
  <g>
    <g id="Layer_1">
      <g>
        <g>
          <path d="M125.34,11.36q5.44-.79,5.45,3.97c.02,15.62.05,31.24.07,46.86,0,1.21,0,2.41,0,3.76,5.38,0,10.52.21,15.62-.15,1.22-.09,2.52-1.89,3.44-3.16,5.6-7.71,11.35-15.33,16.52-23.32,2.56-3.96,5.52-5.25,10.43-4.1-7.52,10.35-14.96,20.57-22.53,30.97,7.14,3.66,9.48,10.77,13.65,16.41,2.94,3.98,5.59,8.23,8.87,11.91,5.37,6.02,12.26,9.17,20.46,9.13,2.27-.01,4.53,0,6.8,0,.05.4.09.8.14,1.19-3.37.62-6.72,1.5-10.12,1.82-15.72,1.47-26.41-6.43-34.55-18.89-2.49-3.81-4.87-7.7-7.47-11.45-2.09-3.02-5.05-4.53-8.84-4.43-4.03.11-8.07.02-12.45.02v29.32h-5.49V11.36Z"/>
          <path d="M180.13,34.93h10.1c0,1.32-.01,2.5,0,3.68.1,10.34-.2,20.7.44,31,.57,9.17,7.77,14.93,16.68,14.45,8.65-.47,14.88-6.99,14.99-16.03.12-9.73.01-19.47,0-29.2,0-1.2,0-2.4,0-3.84h9.76c.09,1.06.25,2.14.25,3.21.06,9.94.21,19.88.09,29.81-.16,13.37-10.06,24.48-22.81,25.85-13.86,1.49-25.75-6.72-28.93-20.05-.37-1.56-.55-3.21-.56-4.82-.05-11.24-.02-22.48-.02-34.07Z"/>
          <path d="M65.16,35.04h9.89c0,2.53,0,4.93,0,7.33-.02,8.42-.15,16.84-.03,25.25.1,6.59,2.99,11.77,8.96,14.8,5.87,2.98,11.65,2.2,16.96-1.5,4.8-3.35,6.68-8.26,6.7-13.95.03-9.53-.02-19.07-.03-28.6,0-1.08,0-2.16,0-3.42h9.67c.09.74.27,1.51.27,2.27,0,10.34.1,20.69-.05,31.03-.19,12.4-8.94,22.94-20.66,25.22-13.08,2.54-24.72-3.39-29.8-15.4-1.01-2.38-1.76-5.07-1.8-7.63-.19-11.65-.08-23.31-.08-35.41Z"/>
          <path d="M64.6,35.31c-7.21,10.55-14.11,20.64-21.2,31,5.78,3.36,7.96,9.34,11.38,14.42,3.16,4.7,6.44,9.36,10.09,13.68,5.99,7.08,13.99,9.72,23.11,9.39,1.13-.04,2.26.14,3.39.22.05.29.11.59.16.88-1.03.42-2.03,1.04-3.1,1.25-15.81,3.02-28.65-1.68-38.03-14.93-2.98-4.21-5.62-8.67-8.36-13.05-2.6-4.17-5.94-6.71-11.23-6.25-3.71.33-7.47.06-11.66.06v29.25c-4.81.87-4.99.72-4.99-3.5.02-27.59.04-55.19.07-82.78,0-1.18.1-2.37.16-3.66h4.74v54.91c5.61,0,10.66.15,15.7-.12,1.11-.06,2.4-1.4,3.17-2.47,6.11-8.47,12.31-16.88,18.07-25.59,2.12-3.21,4.5-3.52,8.54-2.71Z"/>
          <path d="M234.16,23.61c0,3.91-3.06,7.04-6.81,6.98-3.74-.06-6.49-3.02-6.45-6.94.04-3.86,2.93-6.82,6.64-6.81,3.79,0,6.64,2.92,6.63,6.77Z"/>
        </g>
        <g>
          <path class="cls-1" d="M54.76,139.03c-1.15,0-2.24-.23-3.26-.69-1.02-.46-1.91-1.09-2.68-1.9-.77-.81-1.37-1.75-1.8-2.82-.43-1.07-.65-2.22-.65-3.44s.22-2.37.65-3.44c.43-1.07,1.04-2.01,1.8-2.82.77-.81,1.66-1.44,2.68-1.9,1.02-.46,2.1-.69,3.26-.69,1.38,0,2.65.32,3.82.96,1.16.64,2.13,1.5,2.89,2.56l-1.51.82c-.6-.8-1.36-1.44-2.29-1.92s-1.89-.71-2.91-.71c-.93,0-1.81.19-2.62.57s-1.52.9-2.13,1.55-1.09,1.42-1.43,2.28c-.34.86-.51,1.78-.51,2.74s.17,1.91.52,2.77c.35.86.82,1.62,1.44,2.28s1.33,1.17,2.13,1.54c.81.37,1.67.55,2.59.55,1.06,0,2.04-.24,2.94-.73s1.66-1.12,2.25-1.9l1.51.82c-.76,1.07-1.73,1.92-2.89,2.55-1.16.64-2.43.96-3.82.96Z"/>
          <path class="cls-1" d="M74.31,139.03c-1.15,0-2.24-.23-3.26-.69-1.02-.46-1.91-1.09-2.68-1.91-.77-.81-1.38-1.75-1.82-2.82-.44-1.07-.66-2.21-.66-3.43s.22-2.36.66-3.43c.44-1.07,1.04-2.01,1.82-2.82.77-.81,1.67-1.45,2.68-1.91,1.02-.46,2.1-.69,3.26-.69s2.25.23,3.27.69c1.02.46,1.91,1.1,2.68,1.91.77.81,1.38,1.75,1.81,2.82s.65,2.21.65,3.43-.22,2.36-.65,3.43c-.43,1.07-1.04,2.01-1.81,2.82-.77.81-1.67,1.45-2.68,1.91-1.02.46-2.11.69-3.27.69ZM74.31,137.32c.93,0,1.81-.19,2.62-.57s1.52-.9,2.13-1.55,1.09-1.42,1.44-2.28.52-1.78.52-2.74-.17-1.9-.52-2.76-.83-1.63-1.45-2.28-1.33-1.17-2.13-1.54-1.68-.56-2.6-.56-1.81.19-2.62.57-1.52.9-2.13,1.55-1.09,1.42-1.44,2.28c-.35.86-.52,1.78-.52,2.74s.17,1.91.52,2.77.83,1.62,1.45,2.28,1.33,1.17,2.13,1.54c.81.37,1.68.55,2.6.55Z"/>
          <path class="cls-1" d="M93.72,139.03c-.91,0-1.79-.14-2.64-.43-.85-.28-1.59-.69-2.23-1.22-.63-.53-1.08-1.16-1.34-1.89l1.6-.6c.18.5.51.94.98,1.3.48.36,1.03.64,1.67.84.64.19,1.29.29,1.96.29.78,0,1.51-.13,2.18-.39.67-.26,1.22-.62,1.63-1.09s.62-1.02.62-1.65-.22-1.17-.65-1.58c-.43-.41-.99-.74-1.66-.98s-1.39-.42-2.13-.55c-1.16-.2-2.21-.48-3.13-.83-.92-.35-1.65-.84-2.19-1.48s-.8-1.48-.8-2.53c0-.98.28-1.84.85-2.56.57-.72,1.32-1.28,2.25-1.68.93-.4,1.94-.6,3.02-.6.89,0,1.75.14,2.6.41.85.28,1.59.68,2.24,1.21.65.53,1.11,1.17,1.4,1.94l-1.62.59c-.18-.51-.51-.95-.98-1.31-.48-.36-1.03-.64-1.66-.83s-1.29-.29-1.96-.29c-.77,0-1.49.12-2.16.38s-1.21.63-1.63,1.1-.62,1.01-.62,1.64c0,.73.19,1.29.58,1.69.39.39.91.69,1.58.88.67.19,1.42.37,2.26.52,1.09.19,2.1.48,3.04.87.93.39,1.69.92,2.26,1.57s.85,1.46.85,2.42-.28,1.83-.85,2.55c-.57.73-1.32,1.29-2.25,1.69s-1.94.6-3.04.6Z"/>
          <path class="cls-1" d="M105.07,138.71l3.3-17.07h1.24l4.78,12.56,4.76-12.56h1.24l3.32,17.07h-1.74l-2.52-13.06-4.51,11.94h-1.1l-4.51-11.94-2.52,13.06h-1.73Z"/>
          <path class="cls-1" d="M128.68,138.71v-17.07h10.39v1.71h-8.68v5.37h7.18v1.71h-7.18v6.58h8.68v1.71h-10.39Z"/>
          <path class="cls-1" d="M157.1,121.64v1.71h-5.85v15.36h-1.71v-15.36h-5.84v-1.71h13.4Z"/>
          <path class="cls-1" d="M162.35,138.71v-17.07h1.71v17.07h-1.71Z"/>
          <path class="cls-1" d="M177.69,139.03c-1.15,0-2.24-.23-3.26-.69-1.02-.46-1.91-1.09-2.68-1.9-.77-.81-1.37-1.75-1.8-2.82-.43-1.07-.65-2.22-.65-3.44s.22-2.37.65-3.44c.44-1.07,1.04-2.01,1.8-2.82.77-.81,1.66-1.44,2.68-1.9,1.02-.46,2.1-.69,3.26-.69,1.38,0,2.65.32,3.82.96,1.16.64,2.13,1.5,2.89,2.56l-1.51.82c-.6-.8-1.36-1.44-2.29-1.92-.92-.48-1.89-.71-2.91-.71-.93,0-1.81.19-2.62.57-.81.38-1.52.9-2.13,1.55s-1.09,1.42-1.43,2.28-.51,1.78-.51,2.74.17,1.91.52,2.77.83,1.62,1.44,2.28,1.32,1.17,2.13,1.54c.81.37,1.67.55,2.59.55,1.06,0,2.04-.24,2.94-.73.91-.48,1.66-1.12,2.25-1.9l1.51.82c-.76,1.07-1.73,1.92-2.89,2.55-1.16.64-2.43.96-3.82.96Z"/>
          <path class="cls-1" d="M195.48,139.03c-.91,0-1.79-.14-2.64-.43-.85-.28-1.59-.69-2.22-1.22-.63-.53-1.08-1.16-1.34-1.89l1.6-.6c.18.5.51.94.98,1.3.48.36,1.03.64,1.67.84.64.19,1.29.29,1.96.29.78,0,1.51-.13,2.18-.39s1.22-.62,1.63-1.09c.41-.47.62-1.02.62-1.65s-.22-1.17-.65-1.58c-.43-.41-.99-.74-1.66-.98s-1.39-.42-2.13-.55c-1.16-.2-2.21-.48-3.13-.83-.92-.35-1.65-.84-2.19-1.48s-.8-1.48-.8-2.53c0-.98.28-1.84.85-2.56.57-.72,1.32-1.28,2.25-1.68.93-.4,1.94-.6,3.02-.6.89,0,1.75.14,2.6.41.85.28,1.59.68,2.24,1.21.65.53,1.11,1.17,1.4,1.94l-1.62.59c-.18-.51-.51-.95-.98-1.31-.48-.36-1.03-.64-1.66-.83s-1.29-.29-1.96-.29c-.77,0-1.49.12-2.16.38-.67.26-1.21.63-1.63,1.1-.41.47-.62,1.01-.62,1.64,0,.73.19,1.29.58,1.69.39.39.91.69,1.58.88.67.19,1.42.37,2.26.52,1.09.19,2.1.48,3.04.87.93.39,1.69.92,2.26,1.57.57.65.85,1.46.85,2.42s-.28,1.83-.85,2.55c-.57.73-1.32,1.29-2.25,1.69-.93.4-1.95.6-3.04.6Z"/>
        </g>
      </g>
    </g>
  </g>
</svg>