<?xml version="1.0" encoding="UTF-8"?> <svg xmlns="http://www.w3.org/2000/svg" xmlns:xlink="http://www.w3.org/1999/xlink" xmlns:xodm="http://www.corel.com/coreldraw/odm/2003" xml:space="preserve" width="7.7858mm" height="7.7047mm" version="1.1" style="shape-rendering:geometricPrecision; text-rendering:geometricPrecision; image-rendering:optimizeQuality; fill-rule:evenodd; clip-rule:evenodd" viewBox="0 0 770.21 762.19"> <defs> <style type="text/css"> .fil0 {fill:none} .fil1 {fill:#294684;fill-rule:nonzero} </style> </defs> <g id="Layer_x0020_1"> <metadata id="CorelCorpID_0Corel-Layer"></metadata> <rect class="fil0" y="-0" width="770.21" height="762.19"></rect> <path class="fil1" d="M390.38 548.65l-2.62 0.19 -2.56 0.07 -2.56 -0.07 -2.62 -0.19 -2.59 -0.32 -2.55 -0.44 -2.48 -0.56 -2.52 -0.69 -2.46 -0.82c-0.74,-0.26 -1.55,-0.57 -2.41,-0.93l-2.36 -1.04 -2.3 -1.18 -2.27 -1.28 -2.21 -1.4c-1.44,-0.97 -2.84,-2.01 -4.17,-3.11 -1.39,-1.14 -2.69,-2.31 -3.87,-3.49 -1.17,-1.17 -2.34,-2.47 -3.5,-3.87l-1.62 -2.08 -1.48 -2.11 -1.39 -2.21 -1.29 -2.26 -1.18 -2.31 -1.04 -2.36 -0.93 -2.4 -0.82 -2.47 -0.69 -2.51 -0.56 -2.49 -0.44 -2.55 -0.31 -2.58 -0.2 -2.62 -0.07 -2.56c0,-0.77 0.04,-1.58 0.1,-2.41 0.07,-0.79 0.17,-1.64 0.3,-2.52 0.12,-0.82 0.28,-1.74 0.48,-2.72l0.64 -2.83 0.83 -2.99 1.03 -3.22 1.21 -3.39 1.34 -3.45 1.28 -3.05 1.38 -3.17 1.52 -3.28 1.62 -3.37 3.73 -7.34 3.94 -7.24c1.85,-3.25 3.69,-6.47 5.58,-9.7 3.42,-5.69 6.88,-11.25 10.44,-16.86l5.25 -8.06c1.28,-2 2.69,-4.23 3.93,-5.71 0.59,-0.74 1.41,-1.66 2.24,-2.17 0.78,-0.48 1.4,-0.82 2.1,-1.09 0.69,-0.26 1.38,-0.43 2.28,-0.58l0.86 -0.1c0.52,-0.02 0.89,-0.03 1.39,0.01 0.92,0.07 1.49,0.12 2.61,0.4l1.18 0.44c0.35,0.16 0.88,0.37 1.19,0.57 0.68,0.44 1,0.7 1.53,1.17 1.99,1.7 4.07,5.49 5.42,7.5l3.06 4.61c6.32,9.77 12.22,19.45 17.97,29.56l3.94 7.26 1.9 3.67 3.45 7.02 1.52 3.3 1.38 3.16 1.28 3.06 1.34 3.44 1.22 3.39 1.01 3.2 0.84 3.02 0.64 2.83c0.21,1 0.38,1.91 0.49,2.72 0.12,0.88 0.23,1.73 0.29,2.52 0.06,0.83 0.1,1.64 0.1,2.41 0,1.69 -0.09,3.41 -0.26,5.16 -0.17,1.78 -0.43,3.49 -0.75,5.13 -0.33,1.65 -0.75,3.33 -1.26,5.02 -0.51,1.68 -1.11,3.32 -1.75,4.89 -0.65,1.56 -1.39,3.13 -2.23,4.68 -0.82,1.54 -1.72,3.05 -2.68,4.47 -0.97,1.44 -2.01,2.84 -3.11,4.17 -1.14,1.39 -2.3,2.69 -3.48,3.87l-1.9 1.79 -1.97 1.7 -2.06 1.61 -2.13 1.49 -2.2 1.39 -2.27 1.29 -2.31 1.18 -2.36 1.04 -2.4 0.94 -2.46 0.8 -2.52 0.7 -2.49 0.56 -2.55 0.44 -2.58 0.32zm146.67 142.15c0,4.47 -0.44,8.85 -1.29,13.1 -0.86,4.35 -2.15,8.56 -3.82,12.57 -1.68,4.07 -3.78,7.96 -6.22,11.61 -2.47,3.7 -5.29,7.12 -8.38,10.21 -3.11,3.11 -6.53,5.92 -10.21,8.38 -3.65,2.43 -7.54,4.54 -11.61,6.22 -4.02,1.67 -8.23,2.96 -12.57,3.82 -4.24,0.84 -8.63,1.29 -13.1,1.29l-169.48 0c-2.17,0 -4.37,-0.11 -6.6,-0.33 -2.24,-0.22 -4.43,-0.54 -6.53,-0.95 -2.11,-0.43 -4.23,-0.96 -6.37,-1.6 -2.06,-0.61 -4.14,-1.37 -6.2,-2.22 -1.98,-0.82 -3.96,-1.76 -5.93,-2.81 -1.92,-1.03 -3.81,-2.17 -5.66,-3.4 -1.82,-1.23 -3.6,-2.54 -5.3,-3.95 -1.74,-1.44 -3.39,-2.93 -4.92,-4.45 -1.52,-1.52 -3.03,-3.18 -4.46,-4.94 -1.4,-1.69 -2.72,-3.47 -3.95,-5.29 -1.22,-1.82 -2.35,-3.7 -3.39,-5.64 -1.04,-1.94 -1.98,-3.93 -2.81,-5.94 -0.85,-2.06 -1.6,-4.13 -2.23,-6.18 -0.63,-2.13 -1.17,-4.26 -1.58,-6.37 -0.42,-2.1 -0.74,-4.28 -0.95,-6.52 -0.22,-2.24 -0.34,-4.45 -0.34,-6.62l0 -400.9c0,-5.72 0.5,-11.34 1.46,-16.81 0.98,-5.59 2.44,-11.03 4.34,-16.27 1.93,-5.3 4.32,-10.43 7.13,-15.28 2.83,-4.93 6.07,-9.57 9.67,-13.86 3.63,-4.34 7.64,-8.36 11.97,-12.01 4.3,-3.64 8.94,-6.91 13.85,-9.76 4.77,-2.77 9.79,-5.14 15.01,-7.07 4.54,-1.69 9.27,-3.05 14.14,-4.04l0 -86.88c0,-1.59 0.16,-3.16 0.46,-4.68 0.31,-1.54 0.77,-3.06 1.37,-4.51 0.6,-1.43 1.36,-2.83 2.23,-4.14 0.9,-1.34 1.91,-2.57 2.99,-3.65 1.09,-1.09 2.31,-2.1 3.65,-2.99 1.32,-0.88 2.71,-1.63 4.15,-2.23 1.44,-0.6 2.96,-1.07 4.5,-1.38 1.52,-0.3 3.09,-0.46 4.68,-0.46l2.03 0 0 -58.72c-2.86,-0.38 -5.76,-0.71 -8.67,-1.01 -3.56,-0.35 -7.21,-0.64 -10.92,-0.83 -3.8,-0.19 -7.61,-0.27 -11.39,-0.22 -3.77,0.06 -7.56,0.26 -11.3,0.62 -3.72,0.37 -7.4,0.9 -10.99,1.63 -3.57,0.73 -7.1,1.67 -10.56,2.86 -3.42,1.17 -6.74,2.56 -9.9,4.21 -3.17,1.64 -6.22,3.57 -9.11,5.79l-2.51 1.92 -11.55 -14.94 2.54 -1.95c3.53,-2.71 7.25,-5.09 11.11,-7.16 3.82,-2.05 7.78,-3.79 11.84,-5.25 4.03,-1.45 8.14,-2.63 12.31,-3.56 4.18,-0.94 8.39,-1.63 12.59,-2.12 4.2,-0.48 8.47,-0.77 12.76,-0.9 4.24,-0.12 8.49,-0.08 12.67,0.08 4.14,0.17 8.3,0.46 12.4,0.84 4.1,0.38 8.08,0.84 11.92,1.34 1.35,0.15 2.6,0.34 3.85,0.51l0.41 0.06c3.96,0.54 7.52,1.1 11.1,1.64l9.71 1.5 8.52 1.23c2.77,0.38 5.57,0.73 8.39,1.06 2.72,0.31 5.51,0.59 8.37,0.82 2.86,0.24 5.64,0.42 8.3,0.52 2.77,0.11 5.5,0.16 8.18,0.13 2.62,-0.03 5.3,-0.14 8.02,-0.35 2.63,-0.2 5.27,-0.48 7.88,-0.88l2.44 -0.4 2.37 -0.45 2.32 -0.5 2.3 -0.56 4.31 -1.24 2.13 -0.7 4.99 -1.88 6.78 17.59c-4.3,1.66 -8.37,3.09 -12.8,4.35l-4.04 0.99 -0.07 36.64 0.05 17.27 2.24 0c1.59,0 3.16,0.16 4.67,0.46 1.55,0.31 3.07,0.77 4.51,1.38 1.45,0.6 2.84,1.36 4.14,2.22 1.32,0.89 2.54,1.9 3.64,3 1.11,1.11 2.12,2.33 3,3.65 0.88,1.31 1.63,2.71 2.24,4.14 0.59,1.45 1.06,2.97 1.37,4.5 0.31,1.53 0.46,3.1 0.46,4.69l0 86.96c4.82,1 9.54,2.37 14.09,4.08 5.23,1.96 10.24,4.34 14.95,7.09 4.89,2.88 9.51,6.15 13.79,9.77 4.29,3.64 8.28,7.67 11.9,12.01 3.59,4.29 6.83,8.93 9.64,13.83 2.79,4.85 5.16,9.95 7.08,15.25 1.9,5.22 3.35,10.65 4.32,16.21 0.96,5.46 1.45,11.08 1.45,16.78l0 400.9zm-18.61 -60.75l-266.32 0 0 60.75c0,1.66 0.08,3.26 0.23,4.8 0.15,1.55 0.38,3.13 0.69,4.72 0.31,1.56 0.69,3.11 1.14,4.6 0.46,1.5 0.99,3 1.59,4.45 0.58,1.41 1.26,2.84 2.01,4.23 0.74,1.37 1.56,2.72 2.44,4.04 0.85,1.28 1.79,2.53 2.83,3.79 1.03,1.24 2.11,2.42 3.22,3.53 1.19,1.18 2.37,2.26 3.55,3.22 1.23,1.01 2.5,1.96 3.81,2.83 1.33,0.89 2.68,1.7 4.07,2.44 1.38,0.74 2.81,1.42 4.26,2.03 1.45,0.59 2.94,1.13 4.44,1.58 1.49,0.46 3.03,0.84 4.58,1.14 1.58,0.32 3.16,0.55 4.7,0.7 1.52,0.15 3.12,0.23 4.77,0.23l169.65 0c3.22,0 6.39,-0.33 9.43,-0.93 3.14,-0.61 6.15,-1.54 9.02,-2.73 2.96,-1.23 5.76,-2.73 8.36,-4.48 2.61,-1.75 5.08,-3.78 7.34,-6.04 2.27,-2.27 4.3,-4.74 6.05,-7.35 1.74,-2.6 3.24,-5.4 4.47,-8.35 1.19,-2.87 2.12,-5.9 2.74,-9.02 0.6,-3.05 0.92,-6.2 0.92,-9.43l0 -60.75zm-266.32 -309.28l266.32 0 0 -30.87c0,-5.21 -0.51,-10.33 -1.49,-15.26 -1,-5.06 -2.5,-9.96 -4.43,-14.61 -1.98,-4.77 -4.41,-9.3 -7.23,-13.51 -2.85,-4.25 -6.13,-8.23 -9.77,-11.88 -3.65,-3.65 -7.64,-6.93 -11.89,-9.78 -4.21,-2.82 -8.74,-5.25 -13.51,-7.23 -4.65,-1.93 -9.55,-3.43 -14.61,-4.43 -4.94,-0.98 -10.04,-1.49 -15.26,-1.49l-109.9 0c-5.22,0 -10.33,0.51 -15.26,1.49 -5.06,1 -9.96,2.5 -14.61,4.43 -4.77,1.98 -9.3,4.41 -13.52,7.24 -4.24,2.84 -8.23,6.12 -11.88,9.77 -3.65,3.64 -6.92,7.63 -9.77,11.88 -2.82,4.21 -5.25,8.74 -7.23,13.52 -1.93,4.65 -3.43,9.54 -4.43,14.6 -0.98,4.94 -1.49,10.04 -1.49,15.26l0 30.87zm77.4 -127.95l111.34 0 0 -84.91c0,-0.38 -0.03,-0.71 -0.09,-1 -0.08,-0.36 -0.17,-0.67 -0.29,-0.96 -0.14,-0.33 -0.3,-0.62 -0.47,-0.89 -0.19,-0.27 -0.42,-0.54 -0.66,-0.79 -0.26,-0.25 -0.52,-0.47 -0.8,-0.66 -0.27,-0.18 -0.56,-0.34 -0.88,-0.47 -0.29,-0.12 -0.61,-0.22 -0.96,-0.29 -0.29,-0.07 -0.62,-0.1 -1,-0.1l-101.03 0c-0.37,0 -0.7,0.03 -0.99,0.09 -0.36,0.08 -0.68,0.18 -0.97,0.3 -0.32,0.14 -0.61,0.3 -0.88,0.47 -0.27,0.19 -0.54,0.42 -0.79,0.66 -0.25,0.25 -0.47,0.52 -0.66,0.79 -0.18,0.27 -0.34,0.56 -0.47,0.89 -0.12,0.29 -0.22,0.6 -0.29,0.96 -0.07,0.29 -0.1,0.62 -0.1,1l0 84.91zm26.15 -108.94l59.05 0 0 -51.18c-1.72,0.11 -3.48,0.18 -5.28,0.23 -2.55,0.07 -5.12,0.07 -7.71,0.02 -2.74,-0.05 -5.43,-0.16 -8.07,-0.33 -2.6,-0.16 -5.3,-0.38 -8.06,-0.63 -2.83,-0.27 -5.51,-0.56 -8.05,-0.87 -2.61,-0.32 -5.28,-0.68 -7.96,-1.06l-7.87 -1.16 -6.03 -0.96 0 55.94zm-103.54 527.29l266.23 0 0 -271.53 -266.23 0 0 271.53zm137.41 -175.13l-4.33 -6.85 -4.38 6.91 -3.26 5.34 -3.14 5.26 -3.09 5.34 -2.9 5.18 -2.64 4.88 -2.38 4.59 -2.23 4.48 -1.95 4.15 -1.71 3.92 -1.46 3.64c-1.28,3.4 -2.33,6.56 -3.01,10.14l-0.25 2.09 -0.03 0.87c0,1.11 0.06,2.18 0.16,3.18 0.09,1.03 0.26,2.08 0.46,3.16 0.21,1.03 0.46,2.07 0.77,3.08 0.31,1.02 0.66,2.02 1.06,2.98 0.41,0.98 0.87,1.95 1.37,2.87 0.49,0.94 1.05,1.85 1.63,2.73 0.56,0.85 1.21,1.71 1.91,2.56 0.63,0.78 1.36,1.57 2.15,2.36l1.17 1.12 1.2 1.03 1.24 0.97 1.33 0.94 1.35 0.85 1.38 0.78 1.42 0.72 1.45 0.64 1.48 0.57 1.49 0.49 1.55 0.43 1.51 0.34 1.63 0.28 1.51 0.2 1.59 0.12 1.6 0.03c1.12,0 2.18,-0.05 3.18,-0.15 1.03,-0.1 2.08,-0.26 3.16,-0.47 1.03,-0.2 2.07,-0.46 3.08,-0.77 1.02,-0.31 2.02,-0.66 2.97,-1.06 0.99,-0.41 1.96,-0.86 2.88,-1.36 0.94,-0.49 1.85,-1.05 2.73,-1.64 0.85,-0.56 1.71,-1.21 2.56,-1.91 0.78,-0.63 1.57,-1.36 2.36,-2.15l1.12 -1.16 1.03 -1.2 0.97 -1.25 0.94 -1.32 0.85 -1.36 0.78 -1.38 0.72 -1.43 0.64 -1.44 0.57 -1.48 0.49 -1.5 0.43 -1.54 0.34 -1.52 0.28 -1.62 0.2 -1.52 0.12 -1.59 0.03 -1.59 -0.03 -0.87 -0.09 -1 -0.38 -2.27c-0.45,-1.95 -0.96,-3.74 -1.57,-5.64l-1.22 -3.35 -1.46 -3.63 -1.7 -3.9 -1.95 -4.15 -2.22 -4.46 -2.4 -4.62 -2.67 -4.94 -2.86 -5.1 -3.02 -5.23 -3.21 -5.37 -3.31 -5.42z"></path> </g> </svg> 